<?xml version="1.0" standalone="no"?>
<!DOCTYPE svg PUBLIC "-//W3C//DTD SVG 20010904//EN"
 "http://www.w3.org/TR/2001/REC-SVG-20010904/DTD/svg10.dtd">
<svg version="1.0" xmlns="http://www.w3.org/2000/svg"
 width="1034.000000pt" height="1034.000000pt" viewBox="0 0 1034.000000 1034.000000"
 preserveAspectRatio="xMidYMid meet">
<metadata>
Created by potrace 1.14, written by Peter Selinger 2001-2017
</metadata>
<g transform="translate(0.000000,1034.000000) scale(0.100000,-0.100000)"
fill="#000000" stroke="none">
<path d="M3765 7096 c-99 -43 -176 -166 -205 -326 -22 -125 -9 -119 -113 -47
-51 35 -108 72 -127 82 -81 42 -200 51 -273 20 l-32 -13 30 -13 c39 -17 149
-94 190 -133 18 -17 54 -51 80 -75 55 -51 52 -54 -48 -72 -78 -14 -162 -59
-204 -109 -15 -18 -32 -38 -39 -45 -19 -19 -55 -85 -46 -85 4 0 23 5 42 10 19
6 55 13 80 16 25 3 54 8 65 11 11 2 89 7 174 10 114 4 152 3 147 -6 -4 -6 -35
-48 -70 -94 -37 -50 -68 -103 -77 -132 -21 -74 -17 -188 10 -273 40 -124 40
-124 110 44 34 82 85 196 113 254 47 98 51 103 60 80 13 -30 16 -427 5 -525
-36 -307 -165 -644 -356 -930 -101 -152 -93 -146 -129 -83 -61 108 -207 245
-292 273 -3 1 -26 11 -52 23 l-48 21 0 176 0 175 41 0 c31 0 47 6 70 29 l29
29 0 225 0 224 -26 27 c-31 31 -16 29 -264 31 -209 3 -248 -4 -272 -49 -7 -14
-12 -95 -13 -231 -1 -169 2 -215 14 -237 16 -30 48 -46 101 -50 l35 -3 0 -171
1 -171 -47 -12 c-55 -14 -185 -86 -236 -131 -157 -138 -258 -351 -267 -562 -2
-39 -9 -41 -68 -24 -29 8 -68 18 -87 21 -19 3 -37 8 -40 10 -14 8 -154 19
-251 18 -158 0 -339 -22 -500 -59 -113 -26 -127 -27 -133 -7 -3 10 -15 42 -26
72 -37 99 -73 237 -96 376 -26 153 -26 551 0 628 2 7 6 28 9 47 41 269 187
592 380 840 58 75 216 236 296 302 286 236 656 388 1035 427 102 10 350 6 435
-8 153 -25 166 -25 189 0 11 13 22 29 22 36 1 7 2 19 3 26 0 6 -7 22 -16 35
-16 24 -55 37 -138 47 -25 3 -56 8 -70 11 -43 10 -382 12 -445 4 -33 -5 -81
-11 -106 -14 -164 -19 -415 -98 -604 -191 -114 -56 -281 -157 -340 -207 -11
-9 -47 -39 -80 -66 -80 -66 -190 -174 -250 -247 -28 -33 -53 -62 -56 -65 -22
-18 -166 -246 -211 -337 -95 -186 -167 -402 -199 -593 -25 -153 -33 -458 -15
-620 40 -374 193 -745 425 -1033 111 -137 324 -334 389 -358 13 -5 59 -7 101
-3 88 7 354 7 390 0 14 -3 47 -8 74 -11 27 -3 77 -12 111 -20 202 -46 337 -60
566 -59 143 1 231 7 330 23 146 22 191 30 230 37 107 20 390 25 576 10 l101
-8 69 53 c188 145 357 332 484 539 137 224 245 525 275 765 4 28 9 61 12 75 9
42 12 431 3 485 -4 28 -10 73 -14 100 -14 118 -53 274 -103 410 -69 188 -224
453 -273 465 -49 13 -99 -22 -100 -68 0 -13 29 -67 64 -120 95 -144 170 -312
216 -484 22 -81 24 -89 40 -178 32 -179 35 -516 5 -669 -3 -14 -8 -42 -11 -61
-11 -72 -58 -238 -92 -328 -31 -82 -38 -93 -56 -89 -12 2 -76 19 -142 36 -67
17 -135 33 -150 35 -50 7 -128 18 -149 23 -32 6 -297 4 -325 -2 -14 -4 -32 -7
-40 -7 -15 0 -79 -12 -130 -23 -14 -3 -38 -8 -54 -11 -16 -2 -34 -8 -39 -11
-12 -7 -5 5 33 62 112 166 288 678 316 920 3 28 7 61 9 74 12 75 20 294 20
573 0 175 3 317 7 315 3 -1 64 -49 135 -106 130 -106 203 -183 259 -274 l32
-50 -4 79 c-5 102 -10 136 -29 207 -20 75 -26 87 -95 177 -31 41 -62 85 -68
96 -11 20 -9 22 26 26 46 6 134 3 232 -7 41 -4 100 -8 130 -8 102 1 99 -1 60
36 -110 104 -257 167 -376 163 -24 0 -44 2 -44 6 0 15 106 82 237 150 60 31
62 33 40 45 -64 35 -247 40 -333 10 -47 -17 -145 -67 -193 -99 -28 -18 -34
-19 -28 -6 3 9 11 36 17 60 7 24 25 84 41 135 36 110 38 120 46 206 7 74 3 77
-52 53z m260 -3020 c133 -25 246 -54 257 -65 8 -7 -69 -132 -100 -163 -16 -15
-22 -16 -77 -3 -195 47 -412 53 -600 19 -11 -2 -36 -7 -55 -10 -19 -3 -111
-23 -205 -44 -93 -21 -192 -41 -218 -45 -27 -3 -59 -8 -70 -11 -131 -25 -622
-24 -751 2 -11 2 -40 6 -64 9 -23 2 -69 9 -102 15 -33 6 -72 13 -87 16 -16 3
-86 18 -158 34 -149 33 -173 38 -235 46 -56 7 -232 7 -282 -1 -21 -3 -53 -7
-70 -10 -18 -2 -55 -9 -83 -14 -27 -5 -52 -6 -55 -3 -3 4 -29 43 -58 86 -39
58 -49 82 -40 87 11 6 80 20 213 43 88 16 166 21 315 20 152 -1 174 -3 280
-32 242 -66 337 -90 380 -96 25 -3 56 -8 70 -11 111 -24 556 -24 676 -1 12 2
45 7 74 11 29 4 60 8 69 10 124 27 180 39 279 64 112 28 243 55 307 64 62 9
313 -2 390 -17z m-2347 -391 c64 -14 126 -27 137 -30 63 -15 113 -25 135 -29
219 -36 266 -41 445 -53 188 -12 411 -7 555 12 62 9 230 38 275 49 143 33 266
59 335 71 100 16 331 14 429 -5 l65 -13 -71 -66 c-38 -36 -87 -79 -108 -96
-20 -16 -42 -35 -49 -40 -39 -36 -56 -41 -113 -34 -67 8 -451 4 -503 -6 -296
-54 -429 -69 -615 -69 -195 0 -237 5 -548 63 -163 31 -215 35 -410 34 l-179
-2 -56 44 c-85 65 -198 172 -190 180 3 4 42 9 85 12 43 3 80 7 82 9 11 10 193
-9 299 -31z"/>
<path d="M1742 6276 c-6 -13 -19 -23 -29 -23 -41 0 -43 -4 -13 -29 22 -19 28
-30 21 -37 -6 -6 -11 -19 -11 -29 0 -18 1 -18 22 2 24 22 43 26 53 10 3 -5 15
-14 25 -20 18 -10 18 -9 5 25 -14 33 -14 35 12 60 l28 25 -37 0 c-28 0 -38 5
-43 20 -8 27 -19 25 -33 -4z"/>
<path d="M2533 6214 c-96 -47 -98 -201 -5 -257 75 -44 183 -8 213 71 50 130
-83 248 -208 186z"/>
<path d="M5385 6172 c-191 -47 -299 -223 -255 -414 29 -127 87 -184 298 -293
150 -78 212 -145 212 -230 0 -60 -27 -93 -89 -112 -91 -26 -195 -8 -293 51
l-56 33 -45 -109 -45 -109 59 -30 c155 -78 377 -82 519 -9 68 35 145 118 167
180 50 139 12 298 -95 398 -34 31 -81 60 -216 131 -146 77 -206 150 -185 225
19 67 70 96 166 93 60 -2 83 -9 150 -42 l80 -40 22 65 c12 36 23 70 25 75 2 6
6 18 10 27 22 49 -28 82 -169 115 -52 12 -204 9 -260 -5z"/>
<path d="M6237 6174 c-1 -1 -44 -4 -95 -5 l-92 -3 0 -623 0 -623 120 0 120 0
0 223 0 224 93 0 c189 0 331 47 410 137 25 29 75 134 83 176 12 64 10 174 -4
225 -51 182 -202 260 -525 269 -59 1 -108 1 -110 0z m260 -230 c116 -35 152
-87 141 -204 -10 -106 -87 -154 -254 -159 l-94 -2 0 191 0 192 83 -3 c45 -2
101 -9 124 -15z"/>
<path d="M7129 6172 c-53 -2 -68 -6 -71 -20 -3 -14 -2 -1179 1 -1220 1 -10 30
-12 124 -10 l122 3 1 240 c1 132 2 246 3 253 1 13 63 16 104 5 9 -2 56 -64
103 -136 47 -73 120 -185 163 -249 l76 -118 138 0 c85 0 137 4 137 10 0 6 -4
10 -10 10 -5 0 -10 4 -10 8 0 5 -77 125 -171 266 -93 142 -169 259 -167 261 2
1 24 16 49 33 99 67 158 166 165 277 13 205 -99 342 -311 380 -64 12 -269 15
-446 7z m431 -241 c61 -29 79 -61 76 -138 -3 -76 -23 -108 -84 -135 -56 -25
-237 -36 -244 -15 -3 10 -3 230 1 296 l1 24 103 -5 c75 -4 114 -11 147 -27z"/>
<path d="M9257 6174 c-1 -2 -41 -4 -90 -5 l-87 -3 0 -623 0 -623 120 0 120 0
0 223 0 224 98 -1 c333 0 509 160 495 451 -9 205 -136 318 -392 349 -49 6
-260 12 -264 8z m307 -243 c78 -34 106 -76 106 -160 0 -71 -34 -130 -93 -160
-40 -20 -68 -25 -153 -29 l-104 -5 0 193 0 193 98 -6 c67 -3 112 -12 146 -26z"/>
<path d="M8105 5548 l0 -623 398 -3 397 -2 0 105 c0 102 -1 105 -22 106 -13 0
-138 2 -278 2 l-255 2 0 170 0 170 198 3 198 2 -3 103 -3 102 -185 1 c-102 1
-190 2 -196 3 -7 1 -11 44 -10 133 l1 133 278 0 277 0 0 107 0 108 -398 0
-397 0 0 -622z"/>
<path d="M2105 5967 c-7 -26 -16 -31 -70 -39 -17 -3 -15 -6 12 -23 31 -20 31
-21 18 -57 l-12 -37 30 24 31 24 34 -21 33 -20 -14 33 c-14 33 -13 35 17 60
l31 27 -38 -4 c-35 -4 -39 -2 -52 28 l-13 33 -7 -28z"/>
<path d="M1415 5951 c-6 -19 -57 -36 -79 -25 -14 7 24 -25 43 -36 12 -6 13
-15 4 -43 -9 -29 -8 -35 3 -30 8 3 14 9 14 13 0 20 41 20 70 0 l29 -21 -15 37
c-15 36 -15 37 12 61 l27 23 -36 0 c-27 0 -37 5 -42 20 -8 25 -22 26 -30 1z"/>
<path d="M1920 5720 c0 -5 -12 -10 -27 -10 -26 -1 -27 -1 -9 -15 13 -10 17
-22 14 -40 -5 -24 -4 -25 13 -9 17 15 20 15 44 0 25 -16 25 -16 13 9 -10 22
-8 28 8 40 18 14 18 14 -8 15 -16 0 -28 5 -28 10 0 6 -4 10 -10 10 -5 0 -10
-4 -10 -10z"/>
<path d="M1749 5417 c-10 -22 -19 -27 -48 -27 -34 -1 -35 -1 -16 -16 11 -8 26
-19 33 -23 11 -6 11 -13 1 -34 -16 -36 -6 -44 22 -18 22 20 48 17 64 -9 15
-25 24 -6 11 24 -14 33 -13 35 10 53 32 24 30 34 -6 28 -24 -4 -32 -1 -44 22
l-14 28 -13 -28z"/>
<path d="M7554 4538 c-221 -23 -307 -125 -340 -403 -8 -71 -8 -458 0 -530 27
-226 111 -330 296 -364 74 -13 243 -6 304 13 114 35 187 116 223 246 15 55 18
108 18 350 0 349 -8 420 -61 520 -30 56 -40 70 -84 101 -62 46 -117 61 -250
72 -19 1 -67 -1 -106 -5z m146 -253 c33 -10 68 -53 81 -100 8 -26 12 -136 12
-315 0 -260 -1 -277 -21 -316 -25 -50 -71 -74 -139 -74 -65 0 -112 26 -137 75
-20 37 -21 58 -22 305 -1 148 3 287 8 315 21 98 111 144 218 110z"/>
<path d="M6417 4524 c-1 -2 -51 -4 -110 -6 -99 -3 -107 -5 -108 -23 -4 -85 -3
-1225 1 -1226 17 -4 232 -4 239 1 4 3 7 118 7 255 l-1 250 60 -3 c32 -1 61 -5
63 -7 2 -2 77 -115 166 -252 l161 -248 130 0 c79 0 131 4 132 10 1 6 -75 127
-169 270 -94 143 -172 265 -175 271 -2 6 10 17 27 24 42 17 125 104 149 156
64 134 42 311 -49 404 -84 86 -196 121 -393 124 -70 1 -129 1 -130 0z m237
-229 c100 -21 143 -94 117 -202 -20 -81 -98 -117 -245 -111 l-79 3 0 145 c1
80 2 152 2 162 1 14 13 16 89 13 48 -2 100 -7 116 -10z"/>
<path d="M5208 4512 c-17 -3 -18 -41 -18 -625 l0 -622 120 -1 120 0 0 226 0
225 113 0 c127 1 196 15 280 57 124 62 194 178 201 334 8 173 -55 289 -192
352 -104 47 -161 56 -392 57 -118 1 -223 -1 -232 -3z m408 -217 c101 -17 164
-83 164 -170 0 -129 -73 -189 -239 -199 -33 -2 -71 -1 -85 1 l-26 5 0 183 c0
137 3 185 13 188 15 6 117 1 173 -8z"/>
<path d="M8247 4510 c-11 -4 -13 -132 -13 -625 l1 -620 395 0 395 0 0 108 1
107 -278 0 -278 0 0 169 c0 126 3 170 13 173 6 2 94 4 195 3 100 0 183 2 183
5 1 3 2 49 3 103 l2 97 -198 0 -198 0 0 135 0 134 158 0 c86 0 211 0 277 0
l120 1 1 105 c0 69 -3 105 -10 106 -53 4 -760 3 -769 -1z"/>
</g>
</svg>
