<?xml version="1.0" standalone="no"?>
<!DOCTYPE svg PUBLIC "-//W3C//DTD SVG 20010904//EN"
 "http://www.w3.org/TR/2001/REC-SVG-20010904/DTD/svg10.dtd">
<svg version="1.0" xmlns="http://www.w3.org/2000/svg"
 width="5223.000000pt" height="5223.000000pt" viewBox="0 0 5223.000000 5223.000000"
 preserveAspectRatio="xMidYMid meet">
<metadata>
Created by potrace 1.14, written by Peter Selinger 2001-2017
</metadata>
<g transform="translate(0.000000,5223.000000) scale(0.100000,-0.100000)"
fill="#000000" stroke="none">
<path d="M2499 36558 c0 -13 -3 -48 -6 -78 -12 -136 -5 -575 12 -730 2 -19 6
-66 10 -104 4 -38 8 -79 10 -90 2 -12 6 -46 10 -77 3 -31 7 -66 9 -76 3 -11 7
-44 11 -73 6 -49 49 -300 58 -345 3 -11 8 -40 13 -65 4 -25 8 -47 9 -50 1 -3
5 -23 9 -45 5 -22 17 -77 27 -122 10 -44 21 -95 24 -112 3 -16 9 -41 15 -55 5
-15 8 -26 6 -26 -2 0 14 -69 35 -152 22 -84 41 -160 43 -168 62 -251 220 -766
354 -1155 59 -169 241 -663 275 -745 6 -14 11 -27 12 -30 1 -3 5 -14 10 -25 5
-11 52 -128 106 -260 104 -256 288 -681 396 -915 14 -30 41 -87 59 -127 145
-314 473 -966 585 -1166 22 -38 39 -70 39 -73 0 -5 186 -340 282 -508 65 -113
183 -311 351 -590 12 -20 89 -143 161 -256 139 -221 488 -729 617 -901 19 -25
42 -56 52 -70 18 -25 79 -106 132 -175 44 -58 268 -338 274 -344 4 -3 40 -45
81 -94 270 -322 624 -681 891 -903 178 -147 666 -512 999 -744 198 -139 679
-449 696 -449 3 0 18 -8 32 -19 125 -87 628 -343 872 -443 52 -21 104 -43 115
-48 11 -5 45 -19 75 -30 30 -12 64 -26 75 -30 104 -44 587 -194 685 -214 14
-3 72 -17 130 -31 58 -14 119 -27 135 -30 17 -3 55 -11 85 -17 30 -6 62 -12
70 -13 8 -1 44 -8 80 -15 36 -6 74 -13 85 -15 11 -1 39 -5 63 -9 23 -3 61 -8
85 -11 23 -3 53 -8 67 -10 35 -6 127 -16 260 -30 72 -7 179 -15 260 -20 41 -2
113 -7 160 -10 97 -7 769 -8 875 -1 39 2 133 8 210 11 77 4 147 9 155 10 9 2
65 6 125 10 61 4 118 9 129 11 10 2 53 6 95 9 42 3 87 8 101 10 14 2 54 6 90
10 36 3 76 8 90 10 14 2 54 7 90 11 36 3 72 7 80 9 14 2 52 7 165 21 22 3 65
9 95 14 50 8 92 14 167 25 15 2 42 6 58 9 17 2 48 7 70 11 23 3 50 7 62 9 11
3 38 7 59 10 22 4 64 11 94 16 30 5 70 12 88 15 42 7 81 14 112 20 13 2 42 7
65 10 22 4 56 10 75 15 19 5 49 11 65 13 17 3 46 8 65 11 19 3 46 8 60 10 14
3 135 27 270 55 135 28 254 53 265 55 11 2 27 7 35 10 8 3 29 7 45 10 17 2 59
11 95 20 36 8 76 17 90 20 14 2 63 13 110 25 47 11 97 22 110 25 14 3 34 7 45
10 11 2 63 14 115 26 52 12 102 24 110 27 18 6 15 7 -295 144 -270 119 -427
190 -735 332 -30 14 -104 48 -163 76 -60 28 -110 51 -112 51 -1 0 -74 34 -161
76 -88 42 -215 103 -284 136 -159 77 -826 410 -905 453 -33 18 -118 63 -190
100 -71 37 -155 81 -185 98 -30 16 -93 50 -139 74 -47 25 -102 56 -123 69 -20
13 -44 24 -52 24 -8 0 -17 4 -21 9 -3 5 -51 35 -108 65 -101 55 -131 72 -277
156 -41 23 -91 51 -110 62 -233 132 -713 422 -960 581 -153 98 -741 490 -830
554 -36 26 -81 58 -101 72 -246 174 -770 573 -930 709 -13 11 -67 56 -119 99
-52 43 -100 83 -106 88 -6 6 -35 31 -64 56 -29 24 -65 55 -79 69 -15 14 -42
38 -61 54 -42 35 -205 183 -315 286 -107 101 -485 479 -560 560 -33 36 -85 92
-115 125 -30 33 -109 123 -175 200 -66 77 -122 142 -125 145 -19 19 -185 230
-275 350 -59 80 -113 151 -118 158 -6 7 126 -89 294 -215 262 -197 636 -469
819 -598 352 -248 988 -678 1295 -877 149 -97 465 -298 570 -363 61 -37 144
-89 185 -115 41 -26 145 -90 230 -142 85 -52 189 -116 230 -141 41 -25 120
-72 175 -105 55 -32 163 -96 240 -142 915 -543 2092 -1192 3320 -1830 77 -40
185 -96 240 -125 111 -58 203 -106 910 -470 94 -48 239 -123 323 -167 83 -44
152 -76 152 -71 -1 21 -87 473 -120 623 -11 52 -27 127 -34 165 -45 220 -174
747 -251 1015 -19 69 -37 133 -40 143 -59 246 -360 1118 -480 1392 -7 17 -43
102 -80 190 -112 264 -272 598 -398 830 -98 180 -117 215 -180 322 -507 864
-1130 1594 -1852 2168 -551 438 -1099 761 -1862 1096 -348 153 -937 357 -1428
494 -199 56 -695 184 -810 209 -33 8 -161 36 -285 64 -320 72 -583 128 -1115
236 -932 189 -1305 271 -1745 381 -1519 380 -2521 840 -3375 1551 -161 134
-505 476 -650 647 -59 70 -110 127 -112 127 -1 0 -3 -10 -4 -22z"/>
<path d="M19800 24110 l0 -7468 1175 0 1175 0 0 2804 c0 2664 1 2804 18 2804
9 1 337 3 727 5 391 2 728 6 750 9 22 2 74 7 115 10 41 4 91 9 110 11 19 3 55
7 80 10 25 3 56 8 70 10 14 2 43 7 65 10 74 10 159 26 240 45 28 6 61 14 75
16 14 3 34 8 45 11 11 4 25 8 30 9 132 24 444 139 630 231 499 247 876 602
1153 1084 131 228 241 496 322 784 30 110 96 414 106 490 2 22 6 47 9 55 2 8
7 44 10 80 4 36 9 74 11 85 2 11 7 54 10 95 3 42 7 89 9 105 27 220 27 2792 0
3034 -2 20 -7 65 -10 101 -3 36 -8 74 -10 85 -2 11 -7 45 -10 75 -5 49 -16
127 -29 200 -3 14 -10 54 -16 90 -36 206 -143 578 -215 745 -7 17 -27 64 -45
105 -133 310 -335 605 -580 851 -321 321 -696 544 -1170 693 -119 38 -338 94
-393 101 -18 3 -57 9 -87 15 -80 16 -90 18 -145 25 -27 3 -63 8 -80 10 -58 9
-187 22 -310 32 -44 3 -925 7 -1957 9 l-1878 3 0 -7469z m3715 5316 c265 -46
405 -109 556 -248 136 -125 252 -371 294 -628 9 -52 18 -106 20 -120 3 -14 8
-70 12 -125 10 -132 10 -2674 0 -2790 -29 -335 -107 -584 -238 -762 -163 -220
-400 -332 -764 -359 -68 -5 -1167 -9 -1232 -5 -10 1 -13 513 -13 2526 l0 2526
663 -4 c364 -2 680 -7 702 -11z"/>
<path d="M28802 24112 l3 -7467 1955 0 c1692 0 2126 4 2250 19 14 2 59 7 100
10 41 4 100 11 130 16 30 5 75 11 100 14 99 11 405 77 525 113 731 220 1264
596 1628 1150 97 148 221 383 262 498 10 28 22 55 25 60 6 8 89 250 96 280 2
6 19 73 39 150 20 77 38 155 41 173 2 18 11 63 19 100 8 37 17 90 20 117 3 28
10 77 15 110 5 33 12 89 15 125 4 36 8 81 10 100 27 239 26 2086 0 2254 -2 11
-6 59 -10 106 -3 47 -8 94 -10 105 -2 11 -7 43 -10 70 -61 519 -233 1030 -472
1404 -182 285 -429 534 -708 715 -61 39 -119 76 -130 83 -44 27 -205 107 -280
140 -44 19 -83 38 -88 42 -4 4 28 25 70 46 366 182 692 473 918 819 57 87 170
302 211 401 39 94 64 158 64 166 0 4 5 20 12 36 6 15 12 30 13 33 0 3 10 37
22 75 22 69 67 242 78 300 5 27 25 132 39 209 3 16 8 50 12 75 3 25 7 57 10
70 2 14 6 54 10 90 3 36 8 80 10 96 27 210 27 1564 0 1725 -3 14 -7 57 -11 95
-3 39 -8 79 -11 90 -2 11 -6 38 -8 60 -11 95 -69 402 -87 460 -5 17 -25 86
-45 155 -94 323 -248 638 -433 884 -70 93 -82 107 -181 211 -253 268 -581 476
-995 631 -11 4 -22 8 -25 9 -3 1 -48 15 -100 32 -86 28 -160 50 -200 58 -8 2
-62 15 -120 28 -58 14 -121 28 -140 31 -19 3 -73 12 -120 20 -133 23 -200 31
-310 40 -41 4 -93 9 -115 11 -133 16 -405 18 -2158 21 l-1937 3 2 -7467z
m3733 5312 c101 -16 221 -47 275 -71 74 -32 87 -39 155 -80 175 -107 322 -307
396 -536 27 -83 67 -251 74 -307 3 -25 7 -56 10 -70 2 -14 6 -52 9 -85 3 -33
8 -89 12 -125 14 -150 6 -1304 -11 -1423 -10 -76 -28 -193 -30 -202 -1 -5 -6
-28 -10 -50 -5 -22 -10 -42 -10 -45 -32 -140 -107 -318 -183 -435 -89 -136
-263 -287 -407 -354 -137 -64 -303 -109 -460 -126 -27 -3 -68 -8 -90 -10 -32
-4 -817 -8 -1062 -5 l-53 0 0 1970 0 1971 648 -2 c507 -1 666 -4 737 -15z
m-165 -6068 c161 -8 183 -10 323 -37 153 -29 224 -52 348 -112 309 -151 504
-431 593 -855 14 -66 28 -137 30 -159 3 -21 8 -58 11 -83 3 -25 8 -56 10 -70
28 -167 28 -2097 1 -2182 -3 -7 -7 -37 -11 -67 -15 -143 -77 -359 -137 -476
-129 -254 -329 -414 -606 -486 -42 -11 -95 -22 -117 -25 -22 -3 -53 -8 -70
-11 -16 -4 -382 -8 -812 -10 l-783 -4 0 2290 0 2290 28 3 c48 5 1052 0 1192
-6z"/>
<path d="M38316 24117 c1 -4104 2 -7465 3 -7469 0 -3 528 -6 1171 -6 l1170 0
1 22 c1 28 1 14853 0 14888 l-1 26 -1173 0 -1172 0 1 -7461z"/>
<path d="M43220 24110 l0 -7468 1173 1 1172 2 2 3055 c1 1680 2 3067 2 3081
l1 26 1493 1 c820 0 1501 1 1513 1 l21 1 0 1065 0 1065 -41 0 c-23 1 -704 2
-1515 3 l-1473 2 0 2220 c0 1221 1 2232 1 2248 l1 27 1930 0 1930 0 0 1069 0
1069 -3105 0 -3105 0 0 -7468z"/>
<path d="M9927 23446 c-308 -236 -674 -585 -957 -911 -52 -61 -98 -112 -101
-115 -3 -3 -59 -70 -123 -150 -65 -80 -125 -154 -135 -165 -49 -59 -296 -395
-411 -560 -162 -230 -420 -620 -670 -1008 -633 -986 -977 -1476 -1328 -1892
-226 -267 -489 -535 -697 -710 -32 -27 -75 -64 -94 -81 -118 -103 -413 -308
-611 -424 -167 -98 -489 -247 -673 -311 -37 -13 -67 -26 -67 -29 0 -5 14 -12
125 -58 75 -32 239 -91 321 -116 116 -35 446 -113 564 -132 14 -2 41 -7 60
-10 19 -4 45 -8 57 -9 20 -3 66 -10 123 -20 8 -1 42 -6 75 -10 32 -4 68 -9 80
-11 11 -2 45 -6 75 -9 30 -3 71 -7 90 -9 33 -4 104 -11 210 -21 41 -4 95 -8
265 -20 355 -25 1298 -25 1610 0 28 2 104 7 170 10 66 3 136 8 155 10 19 2 76
7 125 10 50 4 106 8 125 10 19 2 68 6 109 10 40 3 88 8 105 10 17 3 60 7 96
10 36 3 79 7 95 9 17 2 59 7 95 11 36 4 79 9 95 11 17 2 68 9 115 14 47 6 96
13 110 15 56 8 152 21 225 30 22 3 47 7 55 10 8 2 38 6 65 10 28 3 57 8 65 10
8 2 35 6 60 9 25 4 56 8 70 11 33 5 197 34 235 40 17 3 39 7 51 10 12 3 39 7
60 11 21 3 66 12 99 19 33 8 76 17 95 20 45 7 256 52 335 70 100 24 239 56
255 60 8 2 60 15 115 29 55 15 109 29 120 31 58 13 362 103 515 152 547 175
987 370 1349 597 177 111 656 432 706 474 12 9 43 33 70 52 28 19 118 87 200
151 509 395 894 803 1207 1279 156 238 340 588 458 870 28 69 56 134 61 145
19 42 98 266 139 390 23 72 44 137 47 145 4 8 7 20 9 25 1 6 22 80 47 165 40
135 112 406 122 458 2 11 8 36 14 58 10 37 66 291 75 344 2 14 11 57 19 95 9
39 18 88 22 110 4 22 9 49 11 60 13 76 73 428 78 460 4 22 11 67 16 99 5 33 8
61 7 62 -1 1 -123 -22 -272 -52 -148 -29 -286 -56 -305 -59 -19 -3 -100 -17
-180 -31 -80 -14 -160 -27 -179 -30 -19 -2 -46 -6 -60 -9 -14 -2 -57 -9 -96
-15 -38 -6 -81 -13 -95 -15 -242 -39 -776 -105 -970 -120 -41 -3 -86 -8 -100
-10 -14 -2 -77 -7 -140 -11 -63 -3 -124 -8 -134 -10 -136 -25 -1197 -25 -1416
0 -19 3 -71 7 -115 11 -44 4 -93 8 -110 10 -16 2 -56 7 -89 10 -32 4 -68 8
-80 10 -11 2 -43 6 -71 10 -104 14 -124 17 -265 41 -436 75 -868 196 -1282
360 -103 41 -191 74 -196 74 -5 0 -52 -33 -105 -74z"/>
</g>
</svg>
